<svg width="24" height="18" viewBox="0 0 24 18" fill="none" xmlns="http://www.w3.org/2000/svg">
<path d="M0 0H24V18H0V0Z" fill="#000066"/>
<path d="M0 0V1.04813L11.5139 9.37502H12.9632V8.32689L1.44927 0H0ZM12.9632 0V1.04813L1.44927 9.37502H0V8.32689L11.5139 0H12.9632Z" fill="white"/>
<path d="M5.40133 0V9.37502H7.56186V0H5.40129H5.40133ZM0 3.12499V6.24999H12.9632V3.12499H0Z" fill="white"/>
<path d="M0 3.75001V5.62501H12.9631V3.75001H0ZM5.83342 0V9.37502H7.12972V0H5.83342ZM0 9.37502L4.32105 6.24999H5.28724L0.966187 9.37502H0ZM0 0L4.32105 3.12499H3.35486L0 0.698739V0ZM7.67587 3.12499L11.997 0H12.9631L8.6421 3.12499H7.67587ZM12.9632 9.37502L8.64214 6.24999H9.60832L12.9632 8.67624V9.37502H12.9632Z" fill="#CC0000"/>
<path fill-rule="evenodd" clip-rule="evenodd" d="M11.2412 14.7196L9.60425 14.8619L9.82973 16.4896L8.69773 15.2985L7.56575 16.4896L7.79128 14.8619L6.1543 14.7196L7.56729 13.881L6.65815 12.5124L8.19451 13.0942L8.69776 11.5299L9.20101 13.0941L10.7374 12.5123L9.82831 13.8808L11.2412 14.7196ZM18.2449 16.2198L17.8498 15.6253L18.5177 15.8781L18.7361 15.1984L18.9545 15.8781L19.6223 15.6253L19.2271 16.2198L19.841 16.5843L19.1298 16.6461L19.2279 17.353L18.7361 16.8358L18.2442 17.353L18.3423 16.6462L17.6311 16.5843L18.2449 16.2198ZM18.2449 5.64125L17.8498 5.04665L18.5177 5.29948L18.7361 4.6199L18.9545 5.2994L19.6223 5.04665L19.2271 5.64121L19.841 6.0056L19.1298 6.06748L19.2279 6.77435L18.7361 6.25711L18.2442 6.77439L18.3423 6.06751L17.6311 6.00564L18.2449 5.64125ZM14.278 9.93874L13.8828 9.34425L14.5506 9.59708L14.7691 8.91739L14.9875 9.59708L15.6553 9.34425L15.2602 9.93874L15.8741 10.3032L15.1629 10.3651L15.261 11.072L14.7691 10.5547L14.2772 11.072L14.3753 10.3651L13.6642 10.3032L14.278 9.93874ZM21.7721 8.88091L21.3762 8.28638L22.0445 8.53921L22.2613 7.85952L22.4808 8.53921L23.1473 8.28638L22.7532 8.88091L23.3668 9.24533L22.6554 9.30721L22.7532 10.0141L22.2613 9.49684L21.7694 10.0141L21.8673 9.30721L21.1572 9.24533L21.7721 8.88091ZM20.3228 11.9976L19.934 12.2385L20.0433 11.7945L19.694 11.4997L20.1501 11.4661L20.3228 11.0427L20.4956 11.4661L20.9517 11.4997L20.6024 11.7946L20.7116 12.2386" fill="white"/>
</svg>
