<svg width="26" height="20" viewBox="0 0 26 20" fill="none" xmlns="http://www.w3.org/2000/svg">
<path d="M0.5 0.5H25.5V19.5H0.5V0.5Z" stroke="#E5E5E5"/>
<path d="M25 1H1V19H25V1Z" fill="#00488B"/>
<path d="M13.0002 16.3712C16.5189 16.3712 19.3714 13.5187 19.3714 10C19.3714 6.48126 16.5189 3.62875 13.0002 3.62875C9.48142 3.62875 6.62891 6.48126 6.62891 10C6.62891 13.5187 9.48142 16.3712 13.0002 16.3712Z" fill="#80E7FF"/>
<path d="M13.7436 3.67L13.4811 4.49125C13.4174 4.69 13.2561 4.84375 13.0574 4.89625L12.3974 5.07625C12.3449 5.09125 12.2886 5.09875 12.2361 5.09875H11.2499C11.1486 5.09875 11.0586 5.17375 11.0474 5.27875L10.9349 6.12999L10.3049 6.16374C10.1999 6.16749 10.1136 6.25374 10.1099 6.36249L10.0874 6.90999C10.0836 7.03374 10.1849 7.13499 10.3086 7.12374L10.7286 7.08999C10.8374 7.08249 10.9349 7.02624 10.9986 6.93624L11.3886 6.39249L12.2211 6.36249C12.3974 6.35499 12.5249 6.53499 12.4611 6.69999C12.3149 7.07124 12.3149 7.10499 12.3149 7.13499C12.3149 7.24749 12.4086 7.34124 12.5211 7.34124C12.6224 7.34124 12.7086 7.26624 12.7236 7.16874C12.7386 7.11999 12.7986 6.95874 12.8811 6.74874C12.9149 6.66249 13.0349 6.64749 13.0836 6.72624L13.1361 6.80499C13.2336 6.95499 13.4174 7.02249 13.5899 6.97374L13.9574 6.87249C14.0586 6.84249 14.1411 6.76749 14.1786 6.66999L14.2499 6.48249C14.2986 6.35124 14.4149 6.25374 14.5499 6.22374L14.7861 6.17499C14.9474 6.14124 15.1199 6.23874 15.1461 6.39999C15.1761 6.56499 15.0599 6.71499 14.8949 6.73374L14.3211 6.74874C14.2049 6.75249 14.1111 6.84624 14.1074 6.96249V7.01874C14.1074 7.06374 14.1299 7.10499 14.1711 7.12374L14.5011 7.29249C14.6249 7.35624 14.6661 7.51374 14.5874 7.62999C14.5424 7.69374 14.4711 7.73124 14.3961 7.73124H12.6599C12.6149 7.73124 12.5699 7.72374 12.5286 7.70499L11.0736 7.13124C10.9649 7.08999 10.8449 7.11249 10.7586 7.19124L9.37861 8.46624C9.26986 8.56749 9.22111 8.72124 9.25861 8.86749L9.53986 10.0075C9.58486 10.1837 9.73486 10.3112 9.91861 10.3187L11.4711 10.4012C11.7749 10.4162 12.0224 10.6562 12.0524 10.96L12.1686 12.2387C12.1761 12.3362 12.2024 12.4262 12.2436 12.5125C12.3749 12.7862 12.6786 13.405 12.8511 13.6225C13.0686 13.9 13.6086 13.9112 13.7886 13.7462L15.0524 12.7112C15.1574 12.6137 15.2286 12.4862 15.2474 12.3437L15.3936 11.3275L16.3949 10.2212C16.4924 10.1125 16.4474 9.94749 16.3236 9.89499L16.3049 9.90624C16.2299 9.95874 16.1399 9.98874 16.0499 9.99624C16.0349 9.99624 16.0161 9.99999 16.0011 9.99999C15.8136 9.99999 15.6411 9.90624 15.5436 9.74499L14.7786 8.52999C14.7186 8.43249 14.7486 8.30874 14.8424 8.24499C14.9399 8.18499 15.0636 8.21499 15.1274 8.30874L15.8924 9.52374C15.9186 9.56499 15.9636 9.58749 16.0161 9.58374C16.0386 9.57999 16.0611 9.57249 16.0761 9.56124L17.1111 8.99499C17.2199 8.93499 17.2461 8.79249 17.1711 8.69874C17.1299 8.64624 17.0624 8.61624 16.9949 8.62374L16.7774 8.64999C16.7174 8.65749 16.6611 8.63874 16.6161 8.59749L15.9636 8.02749C15.8774 7.95249 15.8736 7.82124 15.9486 7.73874C16.0236 7.65249 16.1549 7.64874 16.2374 7.72374L16.8186 8.24499L17.1711 8.20374C17.2461 8.19624 17.3174 8.22624 17.3624 8.28624L17.4299 8.37999L17.7749 8.33874C17.9436 8.31999 18.1049 8.40249 18.1874 8.55249L18.8849 9.83874C18.9336 9.93249 19.0199 10.0037 19.1211 10.0337L19.3724 10.12C19.3724 10.0787 19.3761 10.0412 19.3761 9.99999C19.3724 6.72999 16.9124 4.04125 13.7436 3.67ZM16.4061 7.19124C16.3724 7.21374 16.3311 7.22499 16.2899 7.22499C16.2224 7.22499 16.1586 7.19499 16.1211 7.13499L15.6936 6.50124C15.6299 6.40749 15.6561 6.27999 15.7499 6.21624C15.8436 6.15249 15.9711 6.17874 16.0349 6.27249L16.4624 6.90624C16.5224 6.99999 16.4999 7.12749 16.4061 7.19124Z" fill="#58BA34"/>
<path d="M15.0889 14.245C11.5677 14.245 8.71766 11.3912 8.71766 7.87375C8.71766 6.65125 9.06266 5.5075 9.66266 4.53625C7.84391 5.6575 6.62891 7.6675 6.62891 9.96625C6.62891 13.4875 9.48266 16.3375 13.0002 16.3375C15.2952 16.3375 17.3052 15.1225 18.4302 13.3037C17.4589 13.9 16.3152 14.245 15.0889 14.245Z" fill="#3EDFF9"/>
<path d="M15.7765 13.3675C15.7315 13.3675 15.6828 13.3525 15.6453 13.3187C15.559 13.2475 15.5478 13.1162 15.619 13.03L16.159 12.3888C16.2303 12.3025 16.3615 12.2913 16.4478 12.3625C16.534 12.4338 16.5453 12.565 16.474 12.6513L15.934 13.2925C15.8928 13.3412 15.8365 13.3675 15.7765 13.3675Z" fill="#6BD344"/>
<path d="M11.2457 3.8725L11.062 4.41625C11.0245 4.525 11.0845 4.64125 11.1932 4.675C11.2157 4.6825 11.2382 4.68625 11.257 4.68625C11.3432 4.68625 11.422 4.63375 11.452 4.5475L11.7182 3.7525C11.5607 3.79 11.4032 3.8275 11.2457 3.8725Z" fill="#6BD344"/>
<path d="M7.69469 13.5288L7.87094 11.9125C7.88594 11.785 7.84094 11.6613 7.74719 11.5713L6.64844 10.5438C6.74594 11.6425 7.11719 12.6625 7.69469 13.5288Z" fill="#58BA34"/>
<path d="M12.9997 3.62875C12.7709 3.62875 12.5422 3.64 12.3172 3.66625L12.2947 4.15C12.2422 4.31125 12.3284 4.4875 12.4897 4.54C12.5234 4.55125 12.5534 4.555 12.5872 4.555C12.7147 4.555 12.8384 4.4725 12.8797 4.345L13.1159 3.6325C13.0784 3.62875 13.0409 3.62875 12.9997 3.62875Z" fill="#6BD344"/>
</svg>
