<svg width="20" height="15" viewBox="0 0 20 15" fill="none" xmlns="http://www.w3.org/2000/svg">
<path d="M0 0H20V5H0V0Z" fill="#FF9933"/>
<path d="M0 5H20V10H0V5Z" fill="white"/>
<path d="M0 10H20V15H0V10Z" fill="#128807"/>
<path d="M10 9.5C11.1046 9.5 12 8.60457 12 7.5C12 6.39543 11.1046 5.5 10 5.5C8.89543 5.5 8 6.39543 8 7.5C8 8.60457 8.89543 9.5 10 9.5Z" fill="#000088"/>
<path d="M10 9.25C10.9665 9.25 11.75 8.4665 11.75 7.5C11.75 6.5335 10.9665 5.75 10 5.75C9.0335 5.75 8.25 6.5335 8.25 7.5C8.25 8.4665 9.0335 9.25 10 9.25Z" fill="white"/>
<path d="M10.0004 7.85001C10.1937 7.85001 10.3504 7.69331 10.3504 7.5C10.3504 7.3067 10.1937 7.14999 10.0004 7.14999C9.80709 7.14999 9.65039 7.3067 9.65039 7.5C9.65039 7.69331 9.80709 7.85001 10.0004 7.85001Z" fill="#000088"/>
<path d="M11.7241 7.81518C11.772 7.82148 11.8159 7.78776 11.8223 7.73984C11.8286 7.69193 11.7948 7.64798 11.7469 7.64167C11.699 7.63536 11.655 7.66909 11.6487 7.717C11.6424 7.76491 11.6762 7.80887 11.7241 7.81518Z" fill="#000088"/>
<path d="M9.99945 9.25001L10.0595 8.20001L9.99945 7.70001L9.93945 8.20001L9.99945 9.25001Z" fill="#000088"/>
</svg>
