<svg width="24" height="18" viewBox="0 0 24 18" fill="none" xmlns="http://www.w3.org/2000/svg">
<path d="M24 0H0V18H24V0Z" fill="#00488B"/>
<path d="M12.0002 15.3712C15.5189 15.3712 18.3714 12.5187 18.3714 9C18.3714 5.48126 15.5189 2.62875 12.0002 2.62875C8.48142 2.62875 5.62891 5.48126 5.62891 9C5.62891 12.5187 8.48142 15.3712 12.0002 15.3712Z" fill="#80E7FF"/>
<path d="M12.7436 2.67L12.4811 3.49125C12.4174 3.69 12.2561 3.84375 12.0574 3.89625L11.3974 4.07625C11.3449 4.09125 11.2886 4.09875 11.2361 4.09875H10.2499C10.1486 4.09875 10.0586 4.17375 10.0474 4.27875L9.93486 5.12999L9.30486 5.16374C9.19986 5.16749 9.11361 5.25374 9.10986 5.36249L9.08736 5.90999C9.08361 6.03374 9.18486 6.13499 9.30861 6.12374L9.72861 6.08999C9.83736 6.08249 9.93486 6.02624 9.99861 5.93624L10.3886 5.39249L11.2211 5.36249C11.3974 5.35499 11.5249 5.53499 11.4611 5.69999C11.3149 6.07124 11.3149 6.10499 11.3149 6.13499C11.3149 6.24749 11.4086 6.34124 11.5211 6.34124C11.6224 6.34124 11.7086 6.26624 11.7236 6.16874C11.7386 6.11999 11.7986 5.95874 11.8811 5.74874C11.9149 5.66249 12.0349 5.64749 12.0836 5.72624L12.1361 5.80499C12.2336 5.95499 12.4174 6.02249 12.5899 5.97374L12.9574 5.87249C13.0586 5.84249 13.1411 5.76749 13.1786 5.66999L13.2499 5.48249C13.2986 5.35124 13.4149 5.25374 13.5499 5.22374L13.7861 5.17499C13.9474 5.14124 14.1199 5.23874 14.1461 5.39999C14.1761 5.56499 14.0599 5.71499 13.8949 5.73374L13.3211 5.74874C13.2049 5.75249 13.1111 5.84624 13.1074 5.96249V6.01874C13.1074 6.06374 13.1299 6.10499 13.1711 6.12374L13.5011 6.29249C13.6249 6.35624 13.6661 6.51374 13.5874 6.62999C13.5424 6.69374 13.4711 6.73124 13.3961 6.73124H11.6599C11.6149 6.73124 11.5699 6.72374 11.5286 6.70499L10.0736 6.13124C9.96486 6.08999 9.84486 6.11249 9.75861 6.19124L8.37861 7.46624C8.26986 7.56749 8.22111 7.72124 8.25861 7.86749L8.53986 9.00749C8.58486 9.18374 8.73486 9.31124 8.91861 9.31874L10.4711 9.40124C10.7749 9.41624 11.0224 9.65624 11.0524 9.95999L11.1686 11.2387C11.1761 11.3362 11.2024 11.4262 11.2436 11.5125C11.3749 11.7862 11.6786 12.405 11.8511 12.6225C12.0686 12.9 12.6086 12.9112 12.7886 12.7462L14.0524 11.7112C14.1574 11.6137 14.2286 11.4862 14.2474 11.3437L14.3936 10.3275L15.3949 9.22124C15.4924 9.11249 15.4474 8.94749 15.3236 8.89499L15.3049 8.90624C15.2299 8.95874 15.1399 8.98874 15.0499 8.99624C15.0349 8.99624 15.0161 8.99999 15.0011 8.99999C14.8136 8.99999 14.6411 8.90624 14.5436 8.74499L13.7786 7.52999C13.7186 7.43249 13.7486 7.30874 13.8424 7.24499C13.9399 7.18499 14.0636 7.21499 14.1274 7.30874L14.8924 8.52374C14.9186 8.56499 14.9636 8.58749 15.0161 8.58374C15.0386 8.57999 15.0611 8.57249 15.0761 8.56124L16.1111 7.99499C16.2199 7.93499 16.2461 7.79249 16.1711 7.69874C16.1299 7.64624 16.0624 7.61624 15.9949 7.62374L15.7774 7.64999C15.7174 7.65749 15.6611 7.63874 15.6161 7.59749L14.9636 7.02749C14.8774 6.95249 14.8736 6.82124 14.9486 6.73874C15.0236 6.65249 15.1549 6.64874 15.2374 6.72374L15.8186 7.24499L16.1711 7.20374C16.2461 7.19624 16.3174 7.22624 16.3624 7.28624L16.4299 7.37999L16.7749 7.33874C16.9436 7.31999 17.1049 7.40249 17.1874 7.55249L17.8849 8.83874C17.9336 8.93249 18.0199 9.00374 18.1211 9.03374L18.3724 9.11999C18.3724 9.07874 18.3761 9.04124 18.3761 8.99999C18.3724 5.72999 15.9124 3.04125 12.7436 2.67ZM15.4061 6.19124C15.3724 6.21374 15.3311 6.22499 15.2899 6.22499C15.2224 6.22499 15.1586 6.19499 15.1211 6.13499L14.6936 5.50124C14.6299 5.40749 14.6561 5.27999 14.7499 5.21624C14.8436 5.15249 14.9711 5.17874 15.0349 5.27249L15.4624 5.90624C15.5224 5.99999 15.4999 6.12749 15.4061 6.19124Z" fill="#58BA34"/>
<path d="M14.0889 13.245C10.5677 13.245 7.71766 10.3912 7.71766 6.87375C7.71766 5.65125 8.06266 4.5075 8.66266 3.53625C6.84391 4.6575 5.62891 6.6675 5.62891 8.96625C5.62891 12.4875 8.48266 15.3375 12.0002 15.3375C14.2952 15.3375 16.3052 14.1225 17.4302 12.3037C16.4589 12.9 15.3152 13.245 14.0889 13.245Z" fill="#3EDFF9"/>
<path d="M14.7765 12.3675C14.7315 12.3675 14.6828 12.3525 14.6453 12.3187C14.559 12.2475 14.5478 12.1162 14.619 12.03L15.159 11.3888C15.2303 11.3025 15.3615 11.2913 15.4478 11.3625C15.534 11.4338 15.5453 11.565 15.474 11.6513L14.934 12.2925C14.8928 12.3412 14.8365 12.3675 14.7765 12.3675Z" fill="#6BD344"/>
<path d="M10.2457 2.8725L10.062 3.41625C10.0245 3.525 10.0845 3.64125 10.1932 3.675C10.2157 3.6825 10.2382 3.68625 10.257 3.68625C10.3432 3.68625 10.422 3.63375 10.452 3.5475L10.7182 2.7525C10.5607 2.79 10.4032 2.8275 10.2457 2.8725Z" fill="#6BD344"/>
<path d="M6.69469 12.5288L6.87094 10.9125C6.88594 10.785 6.84094 10.6613 6.74719 10.5713L5.64844 9.54376C5.74594 10.6425 6.11719 11.6625 6.69469 12.5288Z" fill="#58BA34"/>
<path d="M11.9997 2.62875C11.7709 2.62875 11.5422 2.64 11.3172 2.66625L11.2947 3.15C11.2422 3.31125 11.3284 3.4875 11.4897 3.54C11.5234 3.55125 11.5534 3.555 11.5872 3.555C11.7147 3.555 11.8384 3.4725 11.8797 3.345L12.1159 2.6325C12.0784 2.62875 12.0409 2.62875 11.9997 2.62875Z" fill="#6BD344"/>
</svg>
