<svg width="24" height="18" viewBox="0 0 24 18" fill="none" xmlns="http://www.w3.org/2000/svg">
<g clip-path="url(#clip0_116_1450)">
<path fill-rule="evenodd" clip-rule="evenodd" d="M0 0H34.2004V1.38463H0V0ZM0 2.76926H34.2004V4.15389H0V2.76926ZM0 5.53852H34.2004V6.92314H0V5.53852ZM0 8.30777H34.2004V9.6924H0V8.30777ZM0 11.077H34.2004V12.4617H0V11.077ZM0 13.8463H34.2004V15.2309H0V13.8463ZM0 16.6155H34.2004V18.0002H0V16.6155Z" fill="#BD3D44"/>
<path fill-rule="evenodd" clip-rule="evenodd" d="M0 1.38464H34.2004V2.76927H0V1.38464ZM0 4.1539H34.2004V5.53853H0V4.1539ZM0 6.92316H34.2004V8.30779H0V6.92316ZM0 9.69242H34.2004V11.077H0V9.69242ZM0 12.4617H34.2004V13.8463H0V12.4617ZM0 15.2309H34.2004V16.6156H0V15.2309Z" fill="white"/>
<path fill-rule="evenodd" clip-rule="evenodd" d="M0 0H13.68V9.69223H0V0Z" fill="#192F5D"/>
<path fill-rule="evenodd" clip-rule="evenodd" d="M1.14055 0.414856L1.26501 0.797918H1.66783L1.34193 1.0347L1.46642 1.41776L1.14052 1.18102L0.814691 1.41776L0.939144 1.0347L0.613281 0.797918H1.01607L1.14055 0.414856ZM3.42054 0.414856L3.54503 0.797918H3.94785L3.62195 1.0347L3.74644 1.41776L3.42054 1.18102L3.09471 1.41776L3.21917 1.0347L2.8933 0.797918H3.29609L3.42054 0.414856ZM5.70063 0.414856L5.82509 0.797918H6.22791L5.90201 1.0347L6.0265 1.41776L5.70063 1.18102L5.37477 1.41776L5.49922 1.0347L5.17336 0.797918H5.57618L5.70063 0.414856ZM7.98059 0.414856L8.10504 0.797918H8.50783L8.18196 1.0347L8.30642 1.41776L7.98059 1.18102L7.65469 1.41776L7.77918 1.0347L7.45328 0.797918H7.8561L7.98059 0.414856ZM10.2606 0.414856L10.3851 0.797918H10.7879L10.462 1.0347L10.5865 1.41776L10.2606 1.18102L9.93478 1.41776L10.0592 1.0347L9.73337 0.797918H10.1362L10.2606 0.414856ZM12.5407 0.414856L12.6652 0.797918H13.068L12.7421 1.0347L12.8666 1.41776L12.5407 1.18102L12.2148 1.41776L12.3393 1.0347L12.0134 0.797918H12.4163L12.5407 0.414856ZM2.2806 1.38411L2.40505 1.76718H2.80787L2.48198 2.00392L2.6065 2.38702L2.2806 2.15027L1.95474 2.38702L2.07919 2.00392L1.75333 1.76718H2.15615L2.2806 1.38411ZM4.56055 1.38411L4.68501 1.76718H5.08779L4.76193 2.00392L4.88638 2.38702L4.56055 2.15027L4.23465 2.38702L4.35914 2.00392L4.03325 1.76718H4.43607L4.56055 1.38411ZM6.84061 1.38411L6.96506 1.76718H7.36788L7.04199 2.00392L7.16647 2.38702L6.84058 2.15027L6.51475 2.38702L6.6392 2.00392L6.31334 1.76718H6.71612L6.84061 1.38411ZM9.12067 1.38411L9.24512 1.76718H9.64794L9.32204 2.00392L9.44653 2.38702L9.12067 2.15027L8.79477 2.38702L8.91933 2.00392L8.59343 1.76718H8.99625L9.12067 1.38411ZM11.4006 1.38411L11.5251 1.76718H11.9279L11.602 2.00392L11.7264 2.38702L11.4006 2.15027L11.0747 2.38702L11.1992 2.00392L10.8733 1.76718H11.2761L11.4006 1.38411ZM1.14055 2.35334L1.26501 2.7364H1.66783L1.34193 2.97318L1.46642 3.35624L1.14052 3.1195L0.814691 3.35624L0.939144 2.97318L0.613281 2.7364H1.01607L1.14055 2.35334ZM3.42054 2.35334L3.54503 2.7364H3.94785L3.62195 2.97318L3.74644 3.35624L3.42054 3.1195L3.09471 3.35624L3.21917 2.97318L2.8933 2.7364H3.29609L3.42054 2.35334ZM5.70063 2.35334L5.82509 2.7364H6.22791L5.90201 2.97318L6.0265 3.35624L5.70063 3.1195L5.37477 3.35624L5.49922 2.97318L5.17336 2.7364H5.57618L5.70063 2.35334ZM7.98059 2.35334L8.10504 2.7364H8.50783L8.18196 2.97318L8.30642 3.35624L7.98059 3.1195L7.65469 3.35624L7.77918 2.97318L7.45328 2.7364H7.8561L7.98059 2.35334ZM10.2606 2.35334L10.3851 2.7364H10.7879L10.462 2.97318L10.5865 3.35624L10.2606 3.1195L9.93478 3.35624L10.0592 2.97318L9.73337 2.7364H10.1362L10.2606 2.35334ZM12.5407 2.35334L12.6652 2.7364H13.068L12.7421 2.97318L12.8666 3.35624L12.5407 3.1195L12.2148 3.35624L12.3393 2.97318L12.0134 2.7364H12.4163L12.5407 2.35334ZM2.2806 3.32256L2.40505 3.70566H2.80787L2.48198 3.9424L2.6065 4.3255L2.2806 4.08875L1.95474 4.3255L2.07919 3.9424L1.75333 3.70566H2.15615L2.2806 3.32256ZM4.56055 3.32256L4.68501 3.70566H5.08779L4.76193 3.9424L4.88638 4.3255L4.56055 4.08875L4.23465 4.3255L4.35914 3.9424L4.03325 3.70566H4.43607L4.56055 3.32256ZM6.84061 3.32256L6.96506 3.70566H7.36788L7.04199 3.9424L7.16647 4.3255L6.84058 4.08875L6.51475 4.3255L6.6392 3.9424L6.31334 3.70566H6.71612L6.84061 3.32256ZM9.12067 3.32256L9.24512 3.70566H9.64794L9.32204 3.9424L9.44653 4.3255L9.12067 4.08875L8.79477 4.3255L8.91929 3.9424L8.5934 3.70566H8.99622L9.12067 3.32256ZM11.4006 3.32256L11.5251 3.70566H11.9279L11.602 3.9424L11.7264 4.3255L11.4006 4.08875L11.0747 4.3255L11.1992 3.9424L10.8733 3.70566H11.2761L11.4006 3.32256ZM1.14055 4.29182L1.26501 4.67488H1.66783L1.34193 4.91166L1.46642 5.29472L1.14052 5.05798L0.814691 5.29472L0.939144 4.91166L0.613281 4.67488H1.01607L1.14055 4.29182ZM3.42054 4.29182L3.54503 4.67488H3.94785L3.62195 4.91166L3.74644 5.29472L3.42054 5.05798L3.09471 5.29472L3.21917 4.91166L2.8933 4.67488H3.29609L3.42054 4.29182ZM5.70063 4.29182L5.82509 4.67488H6.22791L5.90201 4.91166L6.0265 5.29472L5.70063 5.05798L5.37477 5.29472L5.49922 4.91166L5.17336 4.67488H5.57618L5.70063 4.29182ZM7.98059 4.29182L8.10504 4.67488H8.50783L8.18196 4.91166L8.30642 5.29472L7.98059 5.05798L7.65469 5.29472L7.77918 4.91166L7.45328 4.67488H7.8561L7.98059 4.29182ZM10.2606 4.29182L10.3851 4.67488H10.7879L10.462 4.91166L10.5865 5.29472L10.2606 5.05798L9.93478 5.29472L10.0592 4.91166L9.73337 4.67488H10.1362L10.2606 4.29182ZM12.5407 4.29182L12.6652 4.67488H13.068L12.7421 4.91166L12.8666 5.29472L12.5407 5.05798L12.2148 5.29472L12.3393 4.91166L12.0134 4.67488H12.4163L12.5407 4.29182ZM2.2806 5.26104L2.40505 5.64414H2.80787L2.48198 5.88088L2.6065 6.26398L2.2806 6.02724L1.95474 6.26398L2.07919 5.88088L1.75333 5.64414H2.15615L2.2806 5.26104ZM4.56055 5.26104L4.68501 5.64414H5.08779L4.76193 5.88088L4.88638 6.26398L4.56055 6.02724L4.23465 6.26398L4.35914 5.88088L4.03325 5.64414H4.43607L4.56055 5.26104ZM6.84061 5.26104L6.96506 5.64414H7.36788L7.04199 5.88088L7.16647 6.26398L6.84058 6.02724L6.51475 6.26398L6.6392 5.88088L6.31334 5.64414H6.71612L6.84061 5.26104ZM9.12067 5.26104L9.24512 5.64414H9.64794L9.32204 5.88088L9.44653 6.26398L9.12067 6.02724L8.79477 6.26398L8.91929 5.88088L8.5934 5.64414H8.99622L9.12067 5.26104ZM11.4006 5.26104L11.5251 5.64414H11.9279L11.602 5.88088L11.7264 6.26398L11.4006 6.02724L11.0747 6.26398L11.1992 5.88088L10.8733 5.64414H11.2761L11.4006 5.26104ZM1.14055 6.2303L1.26501 6.61336H1.66783L1.34193 6.85014L1.46642 7.2332L1.14052 6.99646L0.814691 7.2332L0.939144 6.85014L0.613281 6.61336H1.01607L1.14055 6.2303ZM3.42054 6.2303L3.54503 6.61336H3.94785L3.62195 6.85014L3.74644 7.2332L3.42054 6.99646L3.09471 7.2332L3.21917 6.85014L2.8933 6.61336H3.29609L3.42054 6.2303ZM5.70063 6.2303L5.82509 6.61336H6.22791L5.90201 6.85014L6.0265 7.2332L5.70063 6.99646L5.37477 7.2332L5.49922 6.85014L5.17336 6.61336H5.57618L5.70063 6.2303ZM7.98059 6.2303L8.10504 6.61336H8.50783L8.18196 6.85014L8.30642 7.2332L7.98059 6.99646L7.65469 7.2332L7.77918 6.85014L7.45328 6.61336H7.8561L7.98059 6.2303ZM10.2606 6.2303L10.3851 6.61336H10.7879L10.462 6.85014L10.5865 7.2332L10.2606 6.99646L9.93478 7.2332L10.0592 6.85014L9.73337 6.61336H10.1362L10.2606 6.2303ZM12.5407 6.2303L12.6652 6.61336H13.068L12.7421 6.85014L12.8666 7.2332L12.5407 6.99646L12.2148 7.2332L12.3393 6.85014L12.0134 6.61336H12.4163L12.5407 6.2303ZM2.2806 7.19952L2.40505 7.58262H2.80787L2.48198 7.81936L2.6065 8.20246L2.2806 7.96572L1.95474 8.20246L2.07919 7.81936L1.75333 7.58262H2.15615L2.2806 7.19952ZM4.56055 7.19952L4.68501 7.58262H5.08779L4.76193 7.81936L4.88638 8.20246L4.56055 7.96572L4.23465 8.20246L4.35914 7.81936L4.03325 7.58262H4.43607L4.56055 7.19952ZM6.84061 7.19952L6.96506 7.58262H7.36788L7.04199 7.81936L7.16647 8.20246L6.84058 7.96572L6.51475 8.20246L6.6392 7.81936L6.31334 7.58262H6.71612L6.84061 7.19952ZM9.12067 7.19952L9.24512 7.58262H9.64794L9.32204 7.81936L9.44653 8.20246L9.12067 7.96572L8.79477 8.20246L8.91929 7.81936L8.5934 7.58262H8.99622L9.12067 7.19952ZM11.4006 7.19952L11.5251 7.58262H11.9279L11.602 7.81936L11.7264 8.20246L11.4006 7.96572L11.0747 8.20246L11.1992 7.81936L10.8733 7.58262H11.2761L11.4006 7.19952ZM1.14055 8.16878L1.26501 8.55184H1.66783L1.34193 8.78862L1.46642 9.17168L1.14052 8.93494L0.814691 9.17168L0.939144 8.78862L0.613281 8.55184H1.01607L1.14055 8.16878ZM3.42054 8.16878L3.54503 8.55184H3.94785L3.62195 8.78862L3.74644 9.17168L3.42054 8.93494L3.09471 9.17168L3.21917 8.78862L2.8933 8.55184H3.29609L3.42054 8.16878ZM5.70063 8.16878L5.82509 8.55184H6.22791L5.90201 8.78862L6.0265 9.17168L5.70063 8.93494L5.37477 9.17168L5.49922 8.78862L5.17336 8.55184H5.57618L5.70063 8.16878ZM7.98059 8.16878L8.10504 8.55184H8.50783L8.18196 8.78862L8.30642 9.17168L7.98059 8.93494L7.65469 9.17168L7.77918 8.78862L7.45328 8.55184H7.8561L7.98059 8.16878ZM10.2606 8.16878L10.3851 8.55184H10.7879L10.462 8.78862L10.5865 9.17168L10.2606 8.93494L9.93478 9.17168L10.0592 8.78862L9.73337 8.55184H10.1362L10.2606 8.16878ZM12.5407 8.16878L12.6652 8.55184H13.068L12.7421 8.78862L12.8666 9.17168L12.5407 8.93494L12.2148 9.17168L12.3393 8.78862L12.0134 8.55184H12.4163L12.5407 8.16878Z" fill="white"/>
</g>
<defs>
<clipPath id="clip0_116_1450">
<rect width="24" height="18" fill="white"/>
</clipPath>
</defs>
</svg>
