<svg width="36" height="18" viewBox="0 0 36 18" fill="none" xmlns="http://www.w3.org/2000/svg">
<path d="M27.0033 9.18263e-08H9.00064C7.51683 -0.000211861 6.05598 0.3665 4.74816 1.06749C3.44034 1.76847 2.32613 2.78199 1.50472 4.01779C0.683316 5.25359 0.1802 6.67334 0.0401674 8.15064C-0.0998649 9.62794 0.127532 11.1169 0.702113 12.4851C1.27669 13.8532 2.18063 15.0581 3.33345 15.9923C4.48626 16.9266 5.85218 17.5613 7.30961 17.8399C8.76703 18.1186 10.2707 18.0325 11.6868 17.5893C13.1029 17.1462 14.3875 16.3597 15.4262 15.3H20.5738C21.6124 16.3596 22.8968 17.146 24.3127 17.5892C25.7286 18.0323 27.2321 18.1185 28.6894 17.8401C30.1467 17.5617 31.5126 16.9272 32.6654 15.9933C33.8182 15.0593 34.7223 13.8548 35.2971 12.4869C35.8719 11.119 36.0997 9.63026 35.9601 8.15309C35.8204 6.67592 35.3178 5.25618 34.4969 4.02025C33.676 2.78431 32.5623 1.77052 31.2549 1.06911C29.9475 0.367706 28.4869 0.000437354 27.0033 9.18263e-08ZM13.9503 9.675C13.9503 9.85402 13.8792 10.0257 13.7526 10.1523C13.626 10.2789 13.4543 10.35 13.2753 10.35H10.3505V13.275C10.3505 13.454 10.2794 13.6257 10.1529 13.7523C10.0263 13.8789 9.8546 13.95 9.6756 13.95H8.32569C8.14668 13.95 7.97501 13.8789 7.84843 13.7523C7.72185 13.6257 7.65074 13.454 7.65074 13.275V10.35H4.72595C4.54694 10.35 4.37526 10.2789 4.24869 10.1523C4.12211 10.0257 4.051 9.85402 4.051 9.675V8.325C4.051 8.14598 4.12211 7.97429 4.24869 7.8477C4.37526 7.72112 4.54694 7.65 4.72595 7.65H7.65074V4.725C7.65074 4.54598 7.72185 4.37429 7.84843 4.2477C7.97501 4.12112 8.14668 4.05 8.32569 4.05H9.6756C9.8546 4.05 10.0263 4.12112 10.1529 4.2477C10.2794 4.37429 10.3505 4.54598 10.3505 4.725V7.65H13.2753C13.4543 7.65 13.626 7.72112 13.7526 7.8477C13.8792 7.97429 13.9503 8.14598 13.9503 8.325V9.675ZM26.0994 13.95C25.6544 13.95 25.2195 13.818 24.8495 13.5708C24.4795 13.3236 24.1911 12.9722 24.0208 12.561C23.8506 12.1499 23.806 11.6975 23.8928 11.261C23.9796 10.8246 24.1939 10.4237 24.5085 10.109C24.8232 9.79434 25.2241 9.58005 25.6605 9.49323C26.0969 9.40642 26.5493 9.45097 26.9604 9.62127C27.3715 9.79157 27.7229 10.08 27.9701 10.45C28.2173 10.82 28.3493 11.255 28.3493 11.7C28.3493 12.2967 28.1122 12.869 27.6903 13.291C27.2684 13.7129 26.6961 13.95 26.0994 13.95ZM29.6992 8.55C29.2542 8.55 28.8192 8.41804 28.4492 8.17081C28.0792 7.92357 27.7909 7.57217 27.6206 7.16104C27.4503 6.7499 27.4057 6.2975 27.4926 5.86105C27.5794 5.42459 27.7936 5.02368 28.1083 4.70901C28.4229 4.39434 28.8238 4.18005 29.2602 4.09323C29.6967 4.00642 30.149 4.05097 30.5601 4.22127C30.9712 4.39157 31.3226 4.67996 31.5698 5.04997C31.8171 5.41998 31.949 5.85499 31.949 6.3C31.949 6.89674 31.712 7.46903 31.29 7.89099C30.8681 8.31295 30.2959 8.55 29.6992 8.55Z" fill="white"/>
</svg>
