<svg width="22" height="22" viewBox="0 0 22 22" fill="none" xmlns="http://www.w3.org/2000/svg">
<path d="M21.8018 1.75295C21.7822 1.6797 21.7578 1.60646 21.7334 1.53322C21.6895 1.41115 21.6357 1.29885 21.5723 1.18654C21.5039 1.06935 21.4258 0.952165 21.3428 0.849626C21.2402 0.727556 21.1279 0.615251 21.0059 0.517595C20.9521 0.47365 20.8984 0.434587 20.8447 0.395525C20.7812 0.35158 20.7178 0.312517 20.6494 0.278337C20.5615 0.229509 20.4736 0.190447 20.3809 0.156267C20.2979 0.122087 20.21 0.0927904 20.1172 0.0732592C19.9316 0.024431 19.7314 1.69643e-05 19.5312 1.69643e-05H2.34375C1.0498 -0.00486585 0 1.04494 0 2.33888V19.5264C0 19.7266 0.0244141 19.9268 0.0732422 20.1123C0.170898 20.4883 0.356445 20.8252 0.610352 21.1035C0.65918 21.1572 0.712891 21.211 0.771484 21.2647C1.0498 21.5186 1.38672 21.7041 1.7627 21.8018C1.94824 21.8506 2.14844 21.875 2.34863 21.875H19.5361C20.8301 21.875 21.8799 20.8252 21.8799 19.5313V2.33888C21.875 2.13869 21.8506 1.93849 21.8018 1.75295ZM20.3125 19.5264C20.3125 19.9561 19.9609 20.3076 19.5312 20.3076H10.9375V10.9326H1.5625V2.33888C1.5625 1.9092 1.91406 1.55763 2.34375 1.55763H10.9375V10.9326H20.3125V19.5264Z" fill="white"/>
</svg>
