<svg width="26" height="17" viewBox="0 0 26 17" fill="none" xmlns="http://www.w3.org/2000/svg">
<path d="M12.5814 7.96905V7.92999L10.5814 5.35967C10.5814 5.35967 10.1127 5.42217 9.60486 5.94952C9.2533 6.3128 0.14783 15.2894 0.0970486 15.3597C-0.176389 15.7503 0.159549 15.6253 0.71033 15.4261C0.74158 15.4261 5.18299 13.9964 5.18299 13.9964C5.20252 13.973 5.17908 13.9925 5.20642 13.973C5.1908 13.7737 5.17517 12.9495 5.16736 12.8909C5.14392 12.6878 5.2533 12.6214 5.4408 12.5433L9.05799 11.223C9.08142 11.1917 12.515 8.03155 12.5814 7.96905ZM18.8353 12.6605C19.3549 13.2894 19.6439 13.18 20.0385 13.0237C20.1635 12.9769 24.5463 11.1644 24.64 11.1136C24.9525 10.9456 24.5736 10.4612 24.3588 10.1995C24.2767 10.1019 16.347 0.605769 16.265 0.5003C15.8861 0.0237378 15.7064 -0.00360593 14.765 0.000300323C14.3666 0.000300323 10.5931 0.0198315 10.2142 0.0237378C9.46424 0.027644 8.92908 0.0120191 9.46424 0.683894C9.76502 1.05499 18.6127 12.3909 18.8353 12.6605ZM24.8002 12.723C24.7103 12.7112 23.8392 12.5394 23.3158 12.4417C23.3158 12.4417 18.8236 14.4105 18.726 14.4573C18.101 14.7425 17.6752 14.3323 17.2924 13.887L15.0619 10.9964C14.851 10.9612 12.7025 10.6214 12.5111 10.6331C12.39 10.6409 12.1361 10.6644 11.9486 10.7464C11.7572 10.8284 6.27674 12.8089 6.08142 12.8831C5.8822 12.9612 5.63611 13.0237 5.64783 13.18C5.65564 13.2776 5.72595 13.2815 5.82752 13.3167C5.93299 13.348 17.5814 15.9573 17.8588 16.0159C18.4681 16.1448 19.3627 16.4261 19.9525 16.0823C20.0345 16.0355 24.7885 13.098 24.8666 13.0433C25.0775 12.887 25.0345 12.7776 24.8002 12.723Z" fill="white"/>
</svg>
