<svg width="25" height="25" viewBox="0 0 25 25" fill="none" xmlns="http://www.w3.org/2000/svg">
<path d="M12.1094 0C5.42139 0 0 5.42139 0 12.1094C0 18.7974 5.42139 24.2188 12.1094 24.2188C18.7974 24.2188 24.2188 18.7974 24.2188 12.1094C24.2188 5.42139 18.7974 0 12.1094 0ZM11.5557 11.73C11.4146 11.9653 11.1602 12.1094 10.8857 12.1094H10.8706C10.6636 12.1094 10.4648 12.1919 10.3184 12.3384L10.042 12.6147C9.88965 12.7671 9.88965 13.0146 10.042 13.167L10.3184 13.4434C10.4648 13.5898 10.5474 13.7886 10.5474 13.9956V14.4531C10.5474 14.8848 10.1978 15.2344 9.76611 15.2344H9.46777C9.17188 15.2344 8.90137 15.0674 8.76904 14.8022L7.66455 12.5938C7.54541 12.3555 7.22754 12.3037 7.03906 12.4922L6.08838 13.4424C5.94189 13.5889 5.74316 13.6714 5.53613 13.6714H2.48096C2.39844 13.1616 2.34375 12.6426 2.34375 12.1094C2.34375 6.72461 6.72461 2.34375 12.1094 2.34375C13.1597 2.34375 14.1699 2.51514 15.1187 2.82324L12.6694 4.70459C12.4199 4.87109 12.4434 5.24463 12.7114 5.37891L13.2402 5.64307C13.5049 5.77539 13.6719 6.0459 13.6719 6.3418V10.1562C13.6719 10.3721 13.4971 10.5469 13.2812 10.5469H13.1318C12.9839 10.5469 12.8486 10.4634 12.7827 10.3311C12.7065 10.1787 12.4917 10.1704 12.4038 10.3164L11.5557 11.73ZM19.9219 17.1108C19.9219 17.3179 19.8394 17.5166 19.6929 17.6631L19.2256 18.1304C19.0791 18.2769 18.8804 18.3594 18.6733 18.3594H17.9331C17.7261 18.3594 17.5273 18.2769 17.3809 18.1304L16.7456 17.4951C16.586 17.3355 16.3878 17.22 16.1703 17.1597C15.9528 17.0995 15.7234 17.0966 15.5044 17.1514L14.4658 17.4111C14.4038 17.4268 14.3403 17.4346 14.2764 17.4346H13.7715C13.5645 17.4346 13.3657 17.3521 13.2192 17.2056L12.6377 16.624C12.5645 16.5507 12.5234 16.4513 12.5234 16.3477V15.8496C12.5234 15.6899 12.6206 15.5464 12.769 15.4868L14.6899 14.7183C14.7866 14.6797 14.8784 14.6294 14.9629 14.5693L16.1206 13.7446C16.1867 13.6975 16.266 13.6722 16.3472 13.6724H16.9375C17.0952 13.6724 17.2378 13.7671 17.2983 13.9131L17.5596 14.5405C17.5744 14.5761 17.5994 14.6065 17.6315 14.6278C17.6635 14.6492 17.7012 14.6606 17.7397 14.6606H17.9253C18.0122 14.6606 18.0889 14.603 18.1128 14.52L18.3179 13.8135C18.3423 13.73 18.4185 13.6729 18.5054 13.6729H18.8013C18.9092 13.6729 18.9966 13.7603 18.9966 13.8682V14.4995C18.9966 14.603 19.0376 14.7026 19.1108 14.7759L19.6924 15.3574C19.8389 15.5039 19.9214 15.7026 19.9214 15.9097V17.1108H19.9219Z" fill="white"/>
</svg>
